<?xml version="1.0" encoding="UTF-8" standalone="no"?>
<svg
   xmlns:dc="http://purl.org/dc/elements/1.1/"
   xmlns:cc="http://creativecommons.org/ns#"
   xmlns:rdf="http://www.w3.org/1999/02/22-rdf-syntax-ns#"
   xmlns:svg="http://www.w3.org/2000/svg"
   xmlns="http://www.w3.org/2000/svg"
   id="svg10"
   xml:space="preserve"
   enable-background="new 0 0 1000 1000"
   viewBox="0 0 1000 1000"
   y="0px"
   x="0px"
   version="1.1"><defs
   id="defs14" />
<metadata
   id="metadata2"> Svg Vector Icons : http://www.onlinewebfonts.com/icon <rdf:RDF><cc:Work
     rdf:about=""><dc:format>image/svg+xml</dc:format><dc:type
       rdf:resource="http://purl.org/dc/dcmitype/StillImage" /></cc:Work></rdf:RDF></metadata>
<g
   id="g8"><path
     id="path4"
     d="M984.7,604.2c-31.9-277.1-88.3-475.7-267.3-475.7c-90.7,0-137.3,93.2-218.2,100.5c-83.4-7.4-127.5-100.5-218.2-100.5c-179,0-235.4,198.6-264.8,473.2c-17.2,147.1-2.5,269.7,88.3,269.7c127.5,0,132.4-115.2,223.1-169.2c34.3-17.2,110.3-24.5,174.1-27c63.7,2.5,139.8,9.8,174.1,27c90.7,53.9,95.6,169.2,223.1,169.2C987.2,873.9,999.4,751.3,984.7,604.2L984.7,604.2z M283.5,579.7c-71.1,0-127.5-58.8-127.5-127.5c0-68.7,56.4-127.5,127.5-127.5c71.1,0,127.5,56.4,127.5,127.5C411,523.3,352.2,579.7,283.5,579.7L283.5,579.7z M854.8,476.7H754.3v100.5h-49V476.7H604.7v-49h100.5v-98.1h49v98.1h100.5V476.7L854.8,476.7L854.8,476.7z" /><path
     id="path6"
     d="M209.9,452.2c0,19.6,7.4,36.8,22.1,51.5c12.3,12.3,31.9,22.1,51.5,22.1s36.8-7.4,51.5-22.1c12.3-12.3,22.1-31.9,22.1-51.5c0-19.6-7.4-36.8-22.1-51.5c-12.3-12.3-31.9-22.1-51.5-22.1s-36.8,7.4-51.5,22.1C217.3,412.9,209.9,432.6,209.9,452.2L209.9,452.2z" /></g>
</svg>